<?xml version="1.0" encoding="UTF-8" standalone="no"?>
<!-- Created with Inkscape (http://www.inkscape.org/) -->

<svg
   xmlns:dc="http://purl.org/dc/elements/1.1/"
   xmlns:cc="http://creativecommons.org/ns#"
   xmlns:rdf="http://www.w3.org/1999/02/22-rdf-syntax-ns#"
   xmlns:svg="http://www.w3.org/2000/svg"
   xmlns="http://www.w3.org/2000/svg"
   xmlns:sodipodi="http://sodipodi.sourceforge.net/DTD/sodipodi-0.dtd"
   xmlns:inkscape="http://www.inkscape.org/namespaces/inkscape"
   id="svg2"
   version="1.1"
   inkscape:version="0.48.4 r9939"
   width="682.5"
   height="385"
   xml:space="preserve"
   sodipodi:docname="logo1.eps"><metadata
     id="metadata8"><rdf:RDF><cc:Work
         rdf:about=""><dc:format>image/svg+xml</dc:format><dc:type
           rdf:resource="http://purl.org/dc/dcmitype/StillImage" /><dc:title></dc:title></cc:Work></rdf:RDF></metadata><defs
     id="defs6" /><sodipodi:namedview
     pagecolor="#ffffff"
     bordercolor="#666666"
     borderopacity="1"
     objecttolerance="10"
     gridtolerance="10"
     guidetolerance="10"
     inkscape:pageopacity="0"
     inkscape:pageshadow="2"
     inkscape:window-width="1366"
     inkscape:window-height="692"
     id="namedview4"
     showgrid="false"
     inkscape:zoom="0.74803091"
     inkscape:cx="185.36786"
     inkscape:cy="324.56549"
     inkscape:window-x="0"
     inkscape:window-y="24"
     inkscape:window-maximized="1"
     inkscape:current-layer="g10" /><g
     id="g10"
     inkscape:groupmode="layer"
     inkscape:label="ink_ext_XXXXXX"
     transform="matrix(1.25,0,0,-1.25,0,385)"><g
       id="g12"
       transform="scale(0.1,0.1)"><path
         d="m 7.21484,7.41406 5442.33996,0 0,3061.31004 -5442.33996,0 0,-3061.31004 z"
         style="fill:#000000;fill-opacity:1;fill-rule:evenodd;stroke:none"
         id="path14" /><path
         d="m 7.21484,7.41406 5442.33996,0 0,3061.31004 -5442.33996,0 0,-3061.31004 z"
         style="fill:none;stroke:#000000;stroke-opacity:1;stroke-width:4.72425;stroke-linecap:round;stroke-linejoin:round;stroke-miterlimit:10;stroke-dasharray:none"
         id="path16" /><path
         d="m 4259.04,2530.14 c 354.1,-13.96 637.96,-297.82 651.92,-651.93"
         style="fill:none;stroke:#87cfff;stroke-opacity:1;stroke-width:85.0365;stroke-linecap:round;stroke-linejoin:round;stroke-miterlimit:10;stroke-dasharray:none"
         id="path18" /><path
         d="m 4259.04,2756.89 c 2.53,0.02 5.08,0.04 7.62,0.04 481.09,0 871.09,-390 871.09,-871.09 0,-2.54 -0.01,-5.09 -0.03,-7.63"
         style="fill:none;stroke:#87cfff;stroke-opacity:1;stroke-width:113.382;stroke-linecap:round;stroke-linejoin:round;stroke-miterlimit:10;stroke-dasharray:none"
         id="path20" /><path
         d="m 4259.01,2303.4 c 11.45,1 22.94,1.51 34.42,1.51 216.66,0 392.31,-175.64 392.31,-392.3 0,-11.49 -0.51,-22.98 -1.52,-34.42"
         style="fill:none;stroke:#87cfff;stroke-opacity:1;stroke-width:56.691;stroke-linecap:round;stroke-linejoin:round;stroke-miterlimit:10;stroke-dasharray:none"
         id="path22" /><path
         d="m 1991.4,1141.23 56.69,56.7 0,595.25 -56.69,56.69 -56.69,-56.69 0,-595.25"
         style="fill:#ff0000;fill-opacity:1;fill-rule:evenodd;stroke:none"
         id="path24" /><path
         d="m 1991.4,1141.23 56.69,56.7 0,595.25 -56.69,56.69 -56.69,-56.69 0,-595.25 56.69,-56.7 z"
         style="fill:none;stroke:#000000;stroke-opacity:1;stroke-width:4.72425;stroke-linecap:butt;stroke-linejoin:miter;stroke-miterlimit:10;stroke-dasharray:none"
         id="path26" /><path
         d="m 1226.07,1141.23 56.7,56.7 0,595.25 -56.7,56.69 -56.69,-56.69 0,-595.25"
         style="fill:#ff0000;fill-opacity:1;fill-rule:evenodd;stroke:none"
         id="path28" /><path
         d="m 1226.07,1141.23 56.7,56.7 0,595.25 -56.7,56.69 -56.69,-56.69 0,-595.25 56.69,-56.7 z"
         style="fill:none;stroke:#000000;stroke-opacity:1;stroke-width:4.72425;stroke-linecap:butt;stroke-linejoin:miter;stroke-miterlimit:10;stroke-dasharray:none"
         id="path30" /><path
         d="m 1963.05,1112.89 -56.69,56.69 -595.25,0 -56.69,-56.69 56.69,-56.69 595.25,0"
         style="fill:#ff0000;fill-opacity:1;fill-rule:evenodd;stroke:none"
         id="path32" /><path
         d="m 1963.05,1112.89 -56.69,56.69 -595.25,0 -56.69,-56.69 56.69,-56.69 595.25,0 56.69,56.69 z"
         style="fill:none;stroke:#000000;stroke-opacity:1;stroke-width:4.72425;stroke-linecap:butt;stroke-linejoin:miter;stroke-miterlimit:10;stroke-dasharray:none"
         id="path34" /><path
         d="m 3125.22,1169.58 56.69,56.69 0,595.26 -56.69,56.68 -56.69,-56.68 0,-595.26"
         style="fill:#ff0000;fill-opacity:1;fill-rule:evenodd;stroke:none"
         id="path36" /><path
         d="m 3125.22,1169.58 56.69,56.69 0,595.26 -56.69,56.68 -56.69,-56.68 0,-595.26 56.69,-56.69 z"
         style="fill:none;stroke:#000000;stroke-opacity:1;stroke-width:4.72425;stroke-linecap:butt;stroke-linejoin:miter;stroke-miterlimit:10;stroke-dasharray:none"
         id="path38" /><path
         d="m 3096.88,1906.56 -56.7,56.69 -595.25,0 -56.69,-56.69 56.69,-56.69 595.25,0"
         style="fill:#ff0000;fill-opacity:1;fill-rule:evenodd;stroke:none"
         id="path40" /><path
         d="m 3096.88,1906.56 -56.7,56.69 -595.25,0 -56.69,-56.69 56.69,-56.69 595.25,0 56.7,56.69 z"
         style="fill:none;stroke:#000000;stroke-opacity:1;stroke-width:4.72425;stroke-linecap:butt;stroke-linejoin:miter;stroke-miterlimit:10;stroke-dasharray:none"
         id="path42" /><path
         d="m 2359.89,1934.91 56.7,56.69 0,595.26 -56.7,56.69 -56.69,-56.69 0,-595.26"
         style="fill:#ff0000;fill-opacity:1;fill-rule:evenodd;stroke:none"
         id="path44" /><path
         d="m 2359.89,1934.91 56.7,56.69 0,595.26 -56.7,56.69 -56.69,-56.69 0,-595.26 56.69,-56.69 z"
         style="fill:none;stroke:#000000;stroke-opacity:1;stroke-width:4.72425;stroke-linecap:butt;stroke-linejoin:miter;stroke-miterlimit:10;stroke-dasharray:none"
         id="path46" /><path
         d="m 2359.89,1169.58 56.7,56.69 0,595.26 -56.7,56.68 -56.69,-56.68 0,-595.26"
         style="fill:#ff0000;fill-opacity:1;fill-rule:evenodd;stroke:none"
         id="path48" /><path
         d="m 2359.89,1169.58 56.7,56.69 0,595.26 -56.7,56.68 -56.69,-56.68 0,-595.26 56.69,-56.69 z"
         style="fill:none;stroke:#000000;stroke-opacity:1;stroke-width:4.72425;stroke-linecap:butt;stroke-linejoin:miter;stroke-miterlimit:10;stroke-dasharray:none"
         id="path50" /><path
         d="m 3096.88,1141.23 -56.7,56.7 -595.25,0 -56.69,-56.7 56.69,-56.69 595.25,0"
         style="fill:#ff0000;fill-opacity:1;fill-rule:evenodd;stroke:none"
         id="path52" /><path
         d="m 3096.88,1141.23 -56.7,56.7 -595.25,0 -56.69,-56.7 56.69,-56.69 595.25,0 56.7,56.69 z"
         style="fill:none;stroke:#000000;stroke-opacity:1;stroke-width:4.72425;stroke-linecap:butt;stroke-linejoin:miter;stroke-miterlimit:10;stroke-dasharray:none"
         id="path54" /><path
         d="m 4259.04,375.906 56.69,56.692 0,595.252 -56.69,56.69 -56.69,-56.69 0,-595.252"
         style="fill:#ff0000;fill-opacity:1;fill-rule:evenodd;stroke:none"
         id="path56" /><path
         d="m 4259.04,375.906 56.69,56.692 0,595.252 -56.69,56.69 -56.69,-56.69 0,-595.252 56.69,-56.692 z"
         style="fill:none;stroke:#000000;stroke-opacity:1;stroke-width:4.72425;stroke-linecap:butt;stroke-linejoin:miter;stroke-miterlimit:10;stroke-dasharray:none"
         id="path58" /><path
         d="m 4259.04,1141.23 56.69,56.7 0,595.25 -56.69,56.69 -56.69,-56.69 0,-595.25"
         style="fill:#ff0000;fill-opacity:1;fill-rule:evenodd;stroke:none"
         id="path60" /><path
         d="m 4259.04,1141.23 56.69,56.7 0,595.25 -56.69,56.69 -56.69,-56.69 0,-595.25 56.69,-56.7 z"
         style="fill:none;stroke:#000000;stroke-opacity:1;stroke-width:4.72425;stroke-linecap:butt;stroke-linejoin:miter;stroke-miterlimit:10;stroke-dasharray:none"
         id="path62" /><path
         d="m 4230.7,1112.89 -56.7,56.69 -595.25,0 -56.69,-56.69 56.69,-56.69 595.25,0"
         style="fill:#ff0000;fill-opacity:1;fill-rule:evenodd;stroke:none"
         id="path64" /><path
         d="m 4230.7,1112.89 -56.7,56.69 -595.25,0 -56.69,-56.69 56.69,-56.69 595.25,0 56.7,56.69 z"
         style="fill:none;stroke:#000000;stroke-opacity:1;stroke-width:4.72425;stroke-linecap:butt;stroke-linejoin:miter;stroke-miterlimit:10;stroke-dasharray:none"
         id="path66" /><path
         d="m 3493.71,1141.23 56.69,56.7 0,595.25 -56.69,56.69 -56.69,-56.69 0,-595.25"
         style="fill:#ff0000;fill-opacity:1;fill-rule:evenodd;stroke:none"
         id="path68" /><path
         d="m 3493.71,1141.23 56.69,56.7 0,595.25 -56.69,56.69 -56.69,-56.69 0,-595.25 56.69,-56.7 z"
         style="fill:none;stroke:#000000;stroke-opacity:1;stroke-width:4.72425;stroke-linecap:butt;stroke-linejoin:miter;stroke-miterlimit:10;stroke-dasharray:none"
         id="path70" /><path
         d="m 4230.7,1878.21 -56.7,56.7 -595.25,0 -56.69,-56.7 56.69,-56.68 595.25,0"
         style="fill:#ff0000;fill-opacity:1;fill-rule:evenodd;stroke:none"
         id="path72" /><path
         d="m 4230.7,1878.21 -56.7,56.7 -595.25,0 -56.69,-56.7 56.69,-56.68 595.25,0 56.7,56.68 z"
         style="fill:none;stroke:#000000;stroke-opacity:1;stroke-width:4.72425;stroke-linecap:butt;stroke-linejoin:miter;stroke-miterlimit:10;stroke-dasharray:none"
         id="path74" /></g></g></svg>