<?xml version="1.0" encoding="UTF-8" standalone="no"?>
<!-- Created with Inkscape (http://www.inkscape.org/) -->

<svg
   xmlns:dc="http://purl.org/dc/elements/1.1/"
   xmlns:cc="http://creativecommons.org/ns#"
   xmlns:rdf="http://www.w3.org/1999/02/22-rdf-syntax-ns#"
   xmlns:svg="http://www.w3.org/2000/svg"
   xmlns="http://www.w3.org/2000/svg"
   xmlns:sodipodi="http://sodipodi.sourceforge.net/DTD/sodipodi-0.dtd"
   xmlns:inkscape="http://www.inkscape.org/namespaces/inkscape"
   width="298.47122"
   height="456.9664"
   id="svg2"
   version="1.1"
   inkscape:version="0.48.4 r9939"
   sodipodi:docname="sala2.svg">
  <defs
     id="defs4" />
  <sodipodi:namedview
     id="base"
     pagecolor="#ffffff"
     bordercolor="#666666"
     borderopacity="1.0"
     inkscape:pageopacity="0.0"
     inkscape:pageshadow="2"
     inkscape:zoom="0.98994949"
     inkscape:cx="187.17184"
     inkscape:cy="244.46103"
     inkscape:document-units="px"
     inkscape:current-layer="layer2"
     showgrid="false"
     inkscape:window-width="1366"
     inkscape:window-height="692"
     inkscape:window-x="0"
     inkscape:window-y="24"
     inkscape:window-maximized="1"
     fit-margin-top="0"
     fit-margin-left="0"
     fit-margin-right="0"
     fit-margin-bottom="0" />
  <metadata
     id="metadata7">
    <rdf:RDF>
      <cc:Work
         rdf:about="">
        <dc:format>image/svg+xml</dc:format>
        <dc:type
           rdf:resource="http://purl.org/dc/dcmitype/StillImage" />
        <dc:title />
      </cc:Work>
    </rdf:RDF>
  </metadata>
  <g
     inkscape:label="Layer 1"
     inkscape:groupmode="layer"
     id="layer1"
     style="display:inline"
     transform="translate(-136.39854,-37.572639)">
    <path
       style="fill:#000000;fill-opacity:1;fill-rule:nonzero;stroke:#000000;stroke-width:0.69999999;stroke-linejoin:round;stroke-miterlimit:4;stroke-opacity:1;stroke-dasharray:none"
       d="m 327.34375,37.9375 c -2.05967,0.02349 -4.08133,0.06821 -6.0625,0.09375 -36.30434,-0.174875 -78.8897,21.361859 -90.96875,30.84375 -2.09906,1.647732 -8.45789,4.935772 -18.28125,18.1875 -3.94977,-2.425639 -9.04904,-5.904679 -11,-8.75 -5.22316,-7.617566 -1.11837,-15.96291 0.78125,-23.8125 0.76233,-3.150132 3.56249,-5.621066 1.9375,-7.71875 -1.19009,-1.536271 -4.49827,-1.462775 -5.8125,-0.03125 -4.42317,4.81794 0.59971,20.082892 -7.0625,21.75 -6.59887,1.435754 -10.16184,-13.415573 -14.09375,-14.5625 -1.16623,-0.340189 -4.48671,0.565746 -4.625,2.28125 -0.3919,4.861409 10.65381,5.334802 8.65625,13.90625 -0.12458,0.534561 -0.69057,3.42243 -1.1875,3.9375 -6.3072,6.53737 -13.31112,2.737536 -16.84375,6.1875 -0.97816,0.955271 -0.4272,4.308491 0.84375,4.8125 5.51504,2.18703 18.27478,-11.111477 26.375,4.46875 2.49748,4.803724 6.01376,11.0653 10.5,15.40625 -6.3883,11.15536 -13.64894,25.87391 -21.6875,45.34375 -11.39594,24.29219 -11.17914,70.08059 -4.0625,79.8125 1.35305,2.66882 3.10573,5.50425 5.1875,8.40625 -3.24176,5.01786 -8.20837,12.28344 -12.0625,16.125 -1.0722,1.0687 -2.32066,1.97423 -3.6875,2.625 -8.24852,3.92721 -20.45418,0.40882 -26.4375,7.3125 -0.87578,1.0105 -1.47479,3.05339 -0.5,3.96875 4.25854,3.99891 11.3803,-3.51005 17.21875,-3.3125 1.65942,0.0561 4.21354,-0.26732 4.8125,1.28125 2.66081,6.87941 -14.11223,11.48608 -12.03125,18.5625 0.52192,1.77479 3.24436,2.62279 5.0625,2.28125 6.82823,-1.28268 7.91923,-12.94608 14.59375,-14.875 1.68807,-0.48785 3.85314,0.006 5.125,1.21875 4.75861,4.53615 -0.14457,15.46452 5.4375,18.9375 2.04348,1.2714 5.76948,0.70743 7.125,-1.28125 4.61276,-6.76736 -5.81404,-15.9653 -4.8125,-24.09375 0.29309,-2.37867 1.88257,-4.4319 3.09375,-6.5 1.90225,-3.2481 5.95535,-5.49629 9.0625,-8.15625 14.96479,15.35598 34.93746,29.62334 48.0625,32.34375 70.8931,14.69389 91.12996,-1.82774 142.90625,26.9375 21.27487,11.81963 33.77493,54.85508 32.96875,70.53125 -0.0587,1.14228 -0.43071,48.61598 -27.53125,79.21875 -8.45528,9.54797 -32.69494,23.18779 -33.28125,25.59375 -6.12103,25.11809 47.09255,-24.91366 53.78125,-35.65625 12.39458,-19.90669 27.11746,-48.26112 25.5625,-70.46875 -2.2379,-31.96131 3.90355,-86.77734 -42.46875,-116.65625 -9.80207,-5.9184 -95.02862,-31.97886 -117.53125,-49.59375 -1.99373,-1.56068 -3.80314,-3.28309 -5.4375,-5.125 5.78966,-1.98519 20.73128,-6.79642 29.625,-6.65625 2.21422,0.0349 4.30362,1.02383 6.40625,1.71875 7.17671,2.37192 13.94618,10.77082 21.09375,8.3125 2.333,-0.80242 4.55871,-4.03356 3.78125,-6.375 -2.03872,-6.13996 -16.91805,1.5934 -19.40625,-8.875 -0.52032,-2.18909 1.97819,-4.23029 3.71875,-5.65625 5.13153,-4.20402 18.05356,-0.78364 18.4375,-7.40625 0.13453,-2.32056 -3.80867,-3.14948 -6.125,-3.34375 -5.53847,-0.46451 -10.76008,7.85393 -15.75,5.40625 -1.59889,-0.7843 -1.88545,-3.25818 -1.71875,-5.03125 0.48206,-5.12724 6.85341,-10.28529 7.625,-12.4375 0.73396,-2.04726 -0.70554,-5.72212 -2.875,-5.875 -8.09085,-0.57015 -7.64765,14.7114 -13.6875,20.125 -2.15912,1.93525 -4.98406,3.04569 -7.6875,4.09375 -10.08228,3.90865 -22.41006,5.11424 -32,7.90625 -7.48235,-18.3767 -5.77055,-40.98549 -2.1875,-53.40625 0.0187,-0.0649 0.0437,-0.12278 0.0625,-0.1875 4.73925,-1.11601 24.48722,-5.61923 35.71875,-5.4375 10.91782,0.17665 5.05458,14.39765 11.25,16.875 1.33976,0.53572 5.62851,0.68445 6.59375,-1.34375 2.43515,-5.11676 -7.16853,-10.39264 -7.90625,-15.03125 -1.28075,-8.05315 16.45781,-0.29171 21.9375,-2.1875 1.42074,-0.49153 3.28842,-1.67459 2.46875,-4.28125 -2.20609,-7.01567 -20.15586,1.23381 -23.5,-4.21875 -5.50622,-8.97779 21.87512,-6.43372 22,-13.65625 0.0225,-1.30246 -1.9301,-2.02826 -3.21875,-2.21875 -9.18541,-1.3578 -7.17909,6.50497 -26.59375,8.34375 -13.29309,1.259 -21.6452,1.39717 -29.65625,0.125 15.52104,-29.135678 36.57571,-29.635656 47.1875,-29.59375 3.49863,-0.115444 2.04227,1.216327 6.25,5.25 3.36535,3.226138 7.79843,6.7769 12.3125,7.96875 20.22707,5.34057 50.70146,4.27772 54.21875,-1.1875 3.07169,-4.772833 4.39635,-6.752233 1.71875,-15.59375 -0.47592,-1.571495 -5.65756,-14.569038 -9.875,-21.65625 0.56849,1.949484 0.49049,4.122552 -0.40625,6.09375 L 378.75,70.3125 c -1.86988,4.072677 -6.66945,5.860266 -10.5625,3.8125 -0.56593,-0.297686 -1.08261,-0.664646 -1.5625,-1.09375 -0.86863,-0.659304 -1.0281,-2.10982 -0.3125,-2.9375 0.71559,-0.827679 2.15107,-0.853028 2.90625,-0.0625 0.24204,0.216425 0.50377,0.385295 0.78125,0.53125 1.94482,1.022986 4.18889,0.226417 5.1875,-1.96875 0.99862,-2.195167 0.13232,-4.820764 -1.8125,-5.84375 -1.94482,-1.022985 -4.18889,-0.226417 -5.1875,1.96875 -0.43474,0.956099 -1.68416,1.410536 -2.625,0.96875 -0.94084,-0.441787 -1.40349,-1.700151 -0.96875,-2.65625 1.27958,-2.812782 3.96636,-4.546043 6.78125,-4.6875 1.27949,-0.0643 2.59329,0.202442 3.8125,0.84375 0.6775,0.35637 1.28236,0.80108 1.8125,1.3125 -1.52622,-2.572838 -2.69275,-4.602123 -3.0625,-5.28125 C 357.97068,38.694672 341.76144,37.773068 327.34375,37.9375 z m 19.125,32.625 c 1.62052,-0.08144 3.29959,0.250261 4.84375,1.0625 4.94132,2.599165 6.88854,8.849453 4.53125,14.03125 l 0,0.03125 c -2.36826,5.158185 -8.47557,7.437317 -13.40625,4.84375 -0.71678,-0.377029 -1.36096,-0.831525 -1.96875,-1.375 -1.07173,-0.844575 -1.2366,-2.650091 -0.34375,-3.6875 0.89286,-1.037408 2.65858,-1.091929 3.625,-0.125 0.30655,0.274111 0.64856,0.502643 1,0.6875 2.46318,1.295647 5.29771,0.280255 6.5625,-2.5 1.26478,-2.780255 0.15068,-6.110604 -2.3125,-7.40625 -2.46318,-1.295646 -5.29771,-0.280254 -6.5625,2.5 -0.52107,1.246386 -2.13378,1.879933 -3.34375,1.3125 -1.20997,-0.567434 -1.78266,-2.225857 -1.1875,-3.4375 1.62063,-3.562485 4.99735,-5.758341 8.5625,-5.9375 z M 386.5,94.625 c 0.78829,-0.0019 1.40149,0.790227 1.65625,1.15625 -1.10448,1.864372 -2.39638,3.995704 -4.65625,5.21875 -7.95392,4.30467 -24.52498,4.05433 -32.21875,3.15625 -6.47258,-0.75552 -10.4375,-2.96875 -10.4375,-2.96875 -1.15757,-0.40701 -1.58522,-1.246107 -1.75,-2.34375 -0.19995,-1.332007 1.83151,-4.386204 2.96875,-3.96875 -3.21303,7.22934 16.34436,6.16279 21.375,6.75 8.70958,-0.18913 12.12451,-0.51593 17.59375,-2.96875 0.52239,-0.23428 3.13889,-1.512695 4.09375,-3.125 0.49626,-0.646622 0.9529,-0.905228 1.375,-0.90625 z"
       id="rect2985"
       inkscape:connector-curvature="0" />
  </g>
  <g
     inkscape:groupmode="layer"
     id="layer2"
     inkscape:label="yellow"
     style="display:inline"
     transform="translate(-136.39854,-37.572639)">
    <path
       style="fill:#ffff00;fill-opacity:1;stroke:none"
       d="m 272.16757,70.566875 c 4.85699,0.527788 12.11696,4.003389 11.66925,8.868413 -0.5027,5.46247 -9.8447,4.845207 -14.69955,7.398966 -4.80892,2.529594 -9.90247,11.053696 -14.28839,7.846176 -4.85704,-3.552048 -0.23233,-12.980359 3.48467,-17.712356 3.13867,-3.995752 8.78268,-6.950105 13.83402,-6.401199 z"
       id="rect4074-4"
       inkscape:connector-curvature="0"
       sodipodi:nodetypes="aaaaaa" />
    <path
       style="fill:#ffff00;fill-opacity:1;stroke:none"
       d="m 265.37983,234.17869 c 3.1961,1.90112 9.51161,3.3177 8.72516,6.95237 -1.30428,6.02799 -11.86174,5.54709 -17.94259,4.51703 -3.90064,-0.66074 -8.54808,-2.81313 -9.91316,-6.52636 -1.39066,-3.7828 -0.25319,-9.87836 3.38774,-11.60668 5.14782,-2.44363 10.84541,3.75051 15.74285,6.66364 z"
       id="rect4074-4-6"
       inkscape:connector-curvature="0"
       sodipodi:nodetypes="aaaaaa" />
    <path
       style="fill:#ffff00;fill-opacity:1;stroke:none"
       d="m 263.61207,257.41219 c 4.46563,4.55202 7.80326,14.18852 3.42186,18.82167 -2.8589,3.02316 -9.01632,0.896 -12.38675,-1.54389 -3.23138,-2.33922 -3.53672,-7.15576 -5.11494,-10.81951 -1.42842,-3.31603 -6.25901,-7.32749 -3.93586,-10.09145 3.94169,-4.68962 13.72556,-0.73994 18.01569,3.63318 z"
       id="rect4074-4-0"
       inkscape:connector-curvature="0"
       sodipodi:nodetypes="aaaaaa" />
    <path
       style="fill:#ffff00;fill-opacity:1;stroke:none"
       d="m 405.5385,289.48454 c 3.03173,3.29795 8.22344,7.20097 6.9574,11.49807 -1.35111,4.58582 -8.28086,7.54743 -12.89183,6.28479 -3.87402,-1.06084 -5.54821,-6.19372 -6.63017,-10.0619 -1.47401,-5.26981 -4.31103,-14.0114 0.60983,-16.4049 4.42916,-2.15434 8.62148,5.05795 11.95477,8.68394 z"
       id="rect4074-4-1"
       inkscape:connector-curvature="0"
       sodipodi:nodetypes="aaaaaa" />
    <path
       style="fill:#ffff00;fill-opacity:1;stroke:none"
       d="m 421.44841,321.55688 c 4.28819,2.78899 9.72514,8.56195 7.71501,13.26583 -1.39669,3.26837 -6.84029,2.94298 -10.36645,2.49672 -3.71171,-0.46975 -7.46382,-2.43556 -9.91316,-5.26367 -2.86695,-3.3103 -7.15217,-8.9253 -4.44094,-12.3643 3.53051,-4.47818 12.22515,-1.24369 17.00554,1.86542 z"
       id="rect4074-4-3"
       inkscape:connector-curvature="0"
       sodipodi:nodetypes="aaaaaa" />
    <path
       style="fill:#ffff00;fill-opacity:1;stroke:none"
       d="m 212.61091,96.245616 c 3.59192,-6.46117 13.10138,-15.299974 19.19291,-11.11168 7.02477,4.829949 -3.96918,16.729114 -4.04062,25.253824 -0.0599,7.1426 8.16331,16.24588 3.03046,21.2132 -4.17696,4.04226 -13.36751,1.36365 -17.17259,-3.03046 -7.05697,-8.14938 -6.24815,-22.90275 -1.01016,-32.324884 z"
       id="rect4074-9"
       inkscape:connector-curvature="0"
       sodipodi:nodetypes="aaaaaa" />
    <path
       style="fill:#ffff00;fill-opacity:1;stroke:none"
       d="m 185.84186,156.60223 c 2.87961,-5.04713 8.50575,-13.5859 13.63707,-10.85914 9.46985,5.03224 -2.66639,21.3494 -2.52539,32.07234 0.0634,4.82432 5.04379,11.10419 1.51523,14.39468 -4.25106,3.96425 -13.75401,1.67062 -17.17259,-3.03046 -6.44844,-8.86761 -0.8878,-23.05407 4.54568,-32.57742 z"
       id="rect4074-1"
       inkscape:connector-curvature="0"
       sodipodi:nodetypes="aaaaaa" />
    <path
       style="fill:#ffff00;fill-opacity:1;stroke:none"
       d="m 194.51443,232.75219 c -2.25602,-7.8242 -2.06395,-21.69795 5.82272,-23.72478 7.10414,-1.82571 9.49286,11.23634 14.89883,16.19391 6.80541,6.24095 20.66185,7.77855 21.9298,16.92488 1.0571,7.62532 -6.08265,17.92073 -13.75499,18.55174 -13.3546,1.09835 -25.18395,-15.0706 -28.89636,-27.94575 z"
       id="rect4074-0"
       inkscape:connector-curvature="0"
       sodipodi:nodetypes="aaaaaa" />
    <path
       style="fill:#ffff00;fill-opacity:1;stroke:none"
       d="m 238.77998,136.60361 c 4.87279,-3.83901 12.89266,-11.69944 17.16159,-7.19852 5.06288,5.33802 -6.56503,13.17222 -9.60146,19.8735 -3.00982,6.64257 -1.25267,19.77836 -8.53615,20.14397 -6.8462,0.34366 -10.33246,-11.19604 -9.87947,-18.03588 0.404,-6.1002 6.05326,-10.99965 10.85549,-14.78307 z"
       id="rect4074-10"
       inkscape:connector-curvature="0"
       sodipodi:nodetypes="aaaaaa"
       inkscape:transform-center-x="-71.007501"
       inkscape:transform-center-y="35.128012" />
    <path
       style="fill:#ffff00;fill-opacity:1;stroke:none"
       d="m 255.60579,195.14516 c 2.50113,6.9565 1.4263,19.91954 -5.81617,21.40115 -8.31625,1.70128 -9.31869,-14.48676 -15.79245,-19.97717 -4.70271,-3.98838 -16.26021,-2.78273 -16.19033,-8.94859 0.0665,-5.86745 9.74094,-8.55373 15.59582,-8.16414 9.04223,0.60168 19.13706,7.16096 22.20313,15.68875 z"
       id="rect4074-42"
       inkscape:connector-curvature="0"
       sodipodi:nodetypes="aaaaaa" />
    <path
       style="fill:#ffff00;fill-opacity:1;stroke:none"
       d="m 306.41268,247.82982 c 7.3887,0.23582 19.59129,3.69254 19.21389,11.07536 -0.41831,8.1831 -15.27023,6.06914 -22.43738,10.0403 -6.43358,3.56469 -11.66619,15.43115 -18.32056,12.2979 -6.57471,-3.09573 -5.68842,-15.33734 -2.16553,-21.69342 4.27379,-7.71088 14.89801,-12.00137 23.70958,-11.72014 z"
       id="rect4074-3"
       inkscape:connector-curvature="0"
       sodipodi:nodetypes="aaaaaa" />
    <path
       style="fill:#ffff00;fill-opacity:1;stroke:none"
       d="m 378.42491,273.00467 c 4.14456,5.05858 5.66987,15.72761 0.41075,19.61455 -6.70647,4.95665 -15.57452,-6.23429 -23.75769,-7.84079 -7.13815,-1.40135 -18.27221,4.87444 -21.77138,-1.50308 -3.30678,-6.02686 3.59743,-15.27031 9.85512,-18.11623 10.96146,-4.98513 27.63156,-1.46912 35.2632,7.84555 z"
       id="rect4074-19"
       inkscape:connector-curvature="0"
       sodipodi:nodetypes="aaaaaa"
       inkscape:transform-center-x="-21.231751"
       inkscape:transform-center-y="-29.506296" />
  </g>
</svg>
